<mxfile host="app.diagrams.net" modified="2022-12-16T11:14:00.764Z" agent="5.0 (Windows NT 10.0; Win64; x64) AppleWebKit/537.36 (KHTML, like Gecko) Chrome/107.0.0.0 Safari/537.36" etag="Pu_7F1ntuskvVLl01C8r" version="20.7.2" type="github">
  <diagram name="Page-1" id="74e2e168-ea6b-b213-b513-2b3c1d86103e">
    <mxGraphModel dx="1171" dy="1114" grid="1" gridSize="10" guides="1" tooltips="1" connect="1" arrows="1" fold="1" page="1" pageScale="1" pageWidth="1100" pageHeight="850" background="none" math="0" shadow="0">
      <root>
        <mxCell id="0" />
        <mxCell id="1" parent="0" />
        <mxCell id="77e6c97f196da883-1" value="成事记" style="swimlane;html=1;childLayout=stackLayout;startSize=20;rounded=0;shadow=0;labelBackgroundColor=none;strokeWidth=1;fontFamily=Verdana;fontSize=8;align=center;sketch=1;curveFitting=1;jiggle=2;fillColor=#FFE45E;strokeColor=#FF6392;fontColor=#5AA9E6;" parent="1" vertex="1">
          <mxGeometry x="70" y="40" width="685" height="750" as="geometry" />
        </mxCell>
        <mxCell id="77e6c97f196da883-2" value="问题拆解" style="swimlane;html=1;startSize=20;sketch=1;curveFitting=1;jiggle=2;labelBackgroundColor=none;fillColor=#FFE45E;strokeColor=#FF6392;fontColor=#5AA9E6;" parent="77e6c97f196da883-1" vertex="1">
          <mxGeometry y="20" width="160" height="730" as="geometry" />
        </mxCell>
        <mxCell id="zGQl6dQi8vcCYBd8IJZe-68" value="" style="edgeStyle=orthogonalEdgeStyle;rounded=0;sketch=1;hachureGap=4;jiggle=2;curveFitting=1;orthogonalLoop=1;jettySize=auto;html=1;strokeColor=#FF6392;fontFamily=Architects Daughter;fontSource=https%3A%2F%2Ffonts.googleapis.com%2Fcss%3Ffamily%3DArchitects%2BDaughter;fontSize=16;fontColor=#5AA9E6;fillColor=#FFE45E;" edge="1" parent="77e6c97f196da883-2" source="zGQl6dQi8vcCYBd8IJZe-66" target="zGQl6dQi8vcCYBd8IJZe-67">
          <mxGeometry relative="1" as="geometry" />
        </mxCell>
        <mxCell id="zGQl6dQi8vcCYBd8IJZe-66" value="事情开始" style="ellipse;whiteSpace=wrap;html=1;sketch=1;hachureGap=4;jiggle=2;curveFitting=1;strokeColor=#FF6392;fontFamily=Architects Daughter;fontSource=https%3A%2F%2Ffonts.googleapis.com%2Fcss%3Ffamily%3DArchitects%2BDaughter;fontSize=20;fontColor=#5AA9E6;fillColor=#FFE45E;" vertex="1" parent="77e6c97f196da883-2">
          <mxGeometry x="20" y="40" width="120" height="60" as="geometry" />
        </mxCell>
        <mxCell id="zGQl6dQi8vcCYBd8IJZe-70" value="" style="edgeStyle=orthogonalEdgeStyle;rounded=0;sketch=1;hachureGap=4;jiggle=2;curveFitting=1;orthogonalLoop=1;jettySize=auto;html=1;strokeColor=#FF6392;fontFamily=Architects Daughter;fontSource=https%3A%2F%2Ffonts.googleapis.com%2Fcss%3Ffamily%3DArchitects%2BDaughter;fontSize=16;fontColor=#5AA9E6;fillColor=#FFE45E;" edge="1" parent="77e6c97f196da883-2" source="zGQl6dQi8vcCYBd8IJZe-67" target="zGQl6dQi8vcCYBd8IJZe-69">
          <mxGeometry relative="1" as="geometry" />
        </mxCell>
        <mxCell id="zGQl6dQi8vcCYBd8IJZe-67" value="怎么做才能达成目标？" style="whiteSpace=wrap;html=1;fontSize=20;fontFamily=Architects Daughter;fillColor=#FFE45E;strokeColor=#FF6392;fontColor=#5AA9E6;sketch=1;hachureGap=4;jiggle=2;curveFitting=1;fontSource=https%3A%2F%2Ffonts.googleapis.com%2Fcss%3Ffamily%3DArchitects%2BDaughter;" vertex="1" parent="77e6c97f196da883-2">
          <mxGeometry x="20" y="180" width="120" height="60" as="geometry" />
        </mxCell>
        <mxCell id="zGQl6dQi8vcCYBd8IJZe-72" value="" style="edgeStyle=orthogonalEdgeStyle;rounded=0;sketch=1;hachureGap=4;jiggle=2;curveFitting=1;orthogonalLoop=1;jettySize=auto;html=1;strokeColor=#FF6392;fontFamily=Architects Daughter;fontSource=https%3A%2F%2Ffonts.googleapis.com%2Fcss%3Ffamily%3DArchitects%2BDaughter;fontSize=16;fontColor=#5AA9E6;fillColor=#FFE45E;" edge="1" parent="77e6c97f196da883-2" source="zGQl6dQi8vcCYBd8IJZe-69" target="zGQl6dQi8vcCYBd8IJZe-71">
          <mxGeometry relative="1" as="geometry" />
        </mxCell>
        <mxCell id="zGQl6dQi8vcCYBd8IJZe-69" value="收集信息/深入思考" style="whiteSpace=wrap;html=1;fontSize=20;fontFamily=Architects Daughter;fillColor=#FFE45E;strokeColor=#FF6392;fontColor=#5AA9E6;sketch=1;hachureGap=4;jiggle=2;curveFitting=1;fontSource=https%3A%2F%2Ffonts.googleapis.com%2Fcss%3Ffamily%3DArchitects%2BDaughter;" vertex="1" parent="77e6c97f196da883-2">
          <mxGeometry x="20" y="320" width="120" height="60" as="geometry" />
        </mxCell>
        <mxCell id="zGQl6dQi8vcCYBd8IJZe-71" value="拆分为需要解决的小问题" style="whiteSpace=wrap;html=1;fontSize=20;fontFamily=Architects Daughter;fillColor=#FFE45E;strokeColor=#FF6392;fontColor=#5AA9E6;sketch=1;hachureGap=4;jiggle=2;curveFitting=1;fontSource=https%3A%2F%2Ffonts.googleapis.com%2Fcss%3Ffamily%3DArchitects%2BDaughter;" vertex="1" parent="77e6c97f196da883-2">
          <mxGeometry x="20" y="460" width="120" height="90" as="geometry" />
        </mxCell>
        <mxCell id="zGQl6dQi8vcCYBd8IJZe-63" value="消除未知" style="swimlane;html=1;startSize=20;sketch=1;curveFitting=1;jiggle=2;labelBackgroundColor=none;fillColor=#FFE45E;strokeColor=#FF6392;fontColor=#5AA9E6;" vertex="1" parent="77e6c97f196da883-1">
          <mxGeometry x="160" y="20" width="180" height="730" as="geometry" />
        </mxCell>
        <mxCell id="zGQl6dQi8vcCYBd8IJZe-79" value="" style="edgeStyle=orthogonalEdgeStyle;rounded=0;sketch=1;hachureGap=4;jiggle=2;curveFitting=1;orthogonalLoop=1;jettySize=auto;html=1;strokeColor=#FF6392;fontFamily=Architects Daughter;fontSource=https%3A%2F%2Ffonts.googleapis.com%2Fcss%3Ffamily%3DArchitects%2BDaughter;fontSize=16;fontColor=#5AA9E6;fillColor=#FFE45E;" edge="1" parent="zGQl6dQi8vcCYBd8IJZe-63" source="zGQl6dQi8vcCYBd8IJZe-75" target="zGQl6dQi8vcCYBd8IJZe-78">
          <mxGeometry relative="1" as="geometry" />
        </mxCell>
        <mxCell id="zGQl6dQi8vcCYBd8IJZe-75" value="对每个小问题进行未知信息的消除" style="whiteSpace=wrap;html=1;fontSize=20;fontFamily=Architects Daughter;fillColor=#FFE45E;strokeColor=#FF6392;fontColor=#5AA9E6;sketch=1;hachureGap=4;jiggle=2;curveFitting=1;fontSource=https%3A%2F%2Ffonts.googleapis.com%2Fcss%3Ffamily%3DArchitects%2BDaughter;" vertex="1" parent="zGQl6dQi8vcCYBd8IJZe-63">
          <mxGeometry x="30" y="40" width="120" height="80" as="geometry" />
        </mxCell>
        <mxCell id="zGQl6dQi8vcCYBd8IJZe-78" value="尽调" style="whiteSpace=wrap;html=1;fontSize=20;fontFamily=Architects Daughter;fillColor=#FFE45E;strokeColor=#FF6392;fontColor=#5AA9E6;sketch=1;hachureGap=4;jiggle=2;curveFitting=1;fontSource=https%3A%2F%2Ffonts.googleapis.com%2Fcss%3Ffamily%3DArchitects%2BDaughter;" vertex="1" parent="zGQl6dQi8vcCYBd8IJZe-63">
          <mxGeometry x="30" y="180" width="120" height="60" as="geometry" />
        </mxCell>
        <mxCell id="zGQl6dQi8vcCYBd8IJZe-64" value="成本风险" style="swimlane;html=1;startSize=20;sketch=1;curveFitting=1;jiggle=2;labelBackgroundColor=none;fillColor=#FFE45E;strokeColor=#FF6392;fontColor=#5AA9E6;" vertex="1" parent="77e6c97f196da883-1">
          <mxGeometry x="340" y="20" width="170" height="730" as="geometry" />
        </mxCell>
        <mxCell id="zGQl6dQi8vcCYBd8IJZe-83" value="" style="edgeStyle=orthogonalEdgeStyle;rounded=0;sketch=1;hachureGap=4;jiggle=2;curveFitting=1;orthogonalLoop=1;jettySize=auto;html=1;strokeColor=#FF6392;fontFamily=Architects Daughter;fontSource=https%3A%2F%2Ffonts.googleapis.com%2Fcss%3Ffamily%3DArchitects%2BDaughter;fontSize=16;fontColor=#5AA9E6;fillColor=#FFE45E;" edge="1" parent="zGQl6dQi8vcCYBd8IJZe-64" source="zGQl6dQi8vcCYBd8IJZe-80" target="zGQl6dQi8vcCYBd8IJZe-82">
          <mxGeometry relative="1" as="geometry" />
        </mxCell>
        <mxCell id="zGQl6dQi8vcCYBd8IJZe-80" value="成本与风险测算" style="whiteSpace=wrap;html=1;fontSize=20;fontFamily=Architects Daughter;fillColor=#FFE45E;strokeColor=#FF6392;fontColor=#5AA9E6;sketch=1;hachureGap=4;jiggle=2;curveFitting=1;fontSource=https%3A%2F%2Ffonts.googleapis.com%2Fcss%3Ffamily%3DArchitects%2BDaughter;" vertex="1" parent="zGQl6dQi8vcCYBd8IJZe-64">
          <mxGeometry x="25" y="40" width="120" height="60" as="geometry" />
        </mxCell>
        <mxCell id="zGQl6dQi8vcCYBd8IJZe-82" value="了解成本，接受风险" style="whiteSpace=wrap;html=1;fontSize=20;fontFamily=Architects Daughter;fillColor=#FFE45E;strokeColor=#FF6392;fontColor=#5AA9E6;sketch=1;hachureGap=4;jiggle=2;curveFitting=1;fontSource=https%3A%2F%2Ffonts.googleapis.com%2Fcss%3Ffamily%3DArchitects%2BDaughter;" vertex="1" parent="zGQl6dQi8vcCYBd8IJZe-64">
          <mxGeometry x="25" y="180" width="120" height="60" as="geometry" />
        </mxCell>
        <mxCell id="zGQl6dQi8vcCYBd8IJZe-65" value="步骤分解" style="swimlane;html=1;startSize=20;sketch=1;curveFitting=1;jiggle=2;labelBackgroundColor=none;fillColor=#FFE45E;strokeColor=#FF6392;fontColor=#5AA9E6;" vertex="1" parent="77e6c97f196da883-1">
          <mxGeometry x="510" y="20" width="175" height="730" as="geometry" />
        </mxCell>
        <mxCell id="zGQl6dQi8vcCYBd8IJZe-89" value="" style="edgeStyle=orthogonalEdgeStyle;rounded=0;sketch=1;hachureGap=4;jiggle=2;curveFitting=1;orthogonalLoop=1;jettySize=auto;html=1;strokeColor=#FF6392;fontFamily=Architects Daughter;fontSource=https%3A%2F%2Ffonts.googleapis.com%2Fcss%3Ffamily%3DArchitects%2BDaughter;fontSize=16;fontColor=#5AA9E6;fillColor=#FFE45E;" edge="1" parent="zGQl6dQi8vcCYBd8IJZe-65" source="zGQl6dQi8vcCYBd8IJZe-86" target="zGQl6dQi8vcCYBd8IJZe-88">
          <mxGeometry relative="1" as="geometry" />
        </mxCell>
        <mxCell id="zGQl6dQi8vcCYBd8IJZe-86" value="目标导向" style="whiteSpace=wrap;html=1;fontSize=20;fontFamily=Architects Daughter;fillColor=#FFE45E;strokeColor=#FF6392;fontColor=#5AA9E6;sketch=1;hachureGap=4;jiggle=2;curveFitting=1;fontSource=https%3A%2F%2Ffonts.googleapis.com%2Fcss%3Ffamily%3DArchitects%2BDaughter;" vertex="1" parent="zGQl6dQi8vcCYBd8IJZe-65">
          <mxGeometry x="27.5" y="40" width="120" height="60" as="geometry" />
        </mxCell>
        <mxCell id="zGQl6dQi8vcCYBd8IJZe-93" value="" style="edgeStyle=orthogonalEdgeStyle;rounded=0;sketch=1;hachureGap=4;jiggle=2;curveFitting=1;orthogonalLoop=1;jettySize=auto;html=1;strokeColor=#FF6392;fontFamily=Architects Daughter;fontSource=https%3A%2F%2Ffonts.googleapis.com%2Fcss%3Ffamily%3DArchitects%2BDaughter;fontSize=16;fontColor=#5AA9E6;fillColor=#FFE45E;" edge="1" parent="zGQl6dQi8vcCYBd8IJZe-65" source="zGQl6dQi8vcCYBd8IJZe-88" target="zGQl6dQi8vcCYBd8IJZe-92">
          <mxGeometry relative="1" as="geometry" />
        </mxCell>
        <mxCell id="zGQl6dQi8vcCYBd8IJZe-88" value="大目标拆解为若干个小目标" style="whiteSpace=wrap;html=1;fontSize=20;fontFamily=Architects Daughter;fillColor=#FFE45E;strokeColor=#FF6392;fontColor=#5AA9E6;sketch=1;hachureGap=4;jiggle=2;curveFitting=1;fontSource=https%3A%2F%2Ffonts.googleapis.com%2Fcss%3Ffamily%3DArchitects%2BDaughter;" vertex="1" parent="zGQl6dQi8vcCYBd8IJZe-65">
          <mxGeometry x="27.5" y="180" width="120" height="80" as="geometry" />
        </mxCell>
        <mxCell id="zGQl6dQi8vcCYBd8IJZe-92" value="事件完成" style="ellipse;whiteSpace=wrap;html=1;fontSize=20;fontFamily=Architects Daughter;fillColor=#FFE45E;strokeColor=#FF6392;fontColor=#5AA9E6;sketch=1;hachureGap=4;jiggle=2;curveFitting=1;fontSource=https%3A%2F%2Ffonts.googleapis.com%2Fcss%3Ffamily%3DArchitects%2BDaughter;" vertex="1" parent="zGQl6dQi8vcCYBd8IJZe-65">
          <mxGeometry x="22.5" y="320" width="130" height="60" as="geometry" />
        </mxCell>
        <mxCell id="zGQl6dQi8vcCYBd8IJZe-77" style="edgeStyle=orthogonalEdgeStyle;rounded=0;sketch=1;hachureGap=4;jiggle=2;curveFitting=1;orthogonalLoop=1;jettySize=auto;html=1;entryX=0.008;entryY=0.4;entryDx=0;entryDy=0;entryPerimeter=0;strokeColor=#FF6392;fontFamily=Architects Daughter;fontSource=https%3A%2F%2Ffonts.googleapis.com%2Fcss%3Ffamily%3DArchitects%2BDaughter;fontSize=16;fontColor=#5AA9E6;fillColor=#FFE45E;" edge="1" parent="77e6c97f196da883-1" source="zGQl6dQi8vcCYBd8IJZe-71" target="zGQl6dQi8vcCYBd8IJZe-75">
          <mxGeometry relative="1" as="geometry" />
        </mxCell>
        <mxCell id="zGQl6dQi8vcCYBd8IJZe-81" value="" style="edgeStyle=orthogonalEdgeStyle;rounded=0;sketch=1;hachureGap=4;jiggle=2;curveFitting=1;orthogonalLoop=1;jettySize=auto;html=1;strokeColor=#FF6392;fontFamily=Architects Daughter;fontSource=https%3A%2F%2Ffonts.googleapis.com%2Fcss%3Ffamily%3DArchitects%2BDaughter;fontSize=16;fontColor=#5AA9E6;fillColor=#FFE45E;" edge="1" parent="77e6c97f196da883-1" source="zGQl6dQi8vcCYBd8IJZe-78" target="zGQl6dQi8vcCYBd8IJZe-80">
          <mxGeometry relative="1" as="geometry">
            <Array as="points">
              <mxPoint x="350" y="230" />
              <mxPoint x="350" y="90" />
            </Array>
          </mxGeometry>
        </mxCell>
        <mxCell id="zGQl6dQi8vcCYBd8IJZe-87" value="" style="edgeStyle=orthogonalEdgeStyle;rounded=0;sketch=1;hachureGap=4;jiggle=2;curveFitting=1;orthogonalLoop=1;jettySize=auto;html=1;strokeColor=#FF6392;fontFamily=Architects Daughter;fontSource=https%3A%2F%2Ffonts.googleapis.com%2Fcss%3Ffamily%3DArchitects%2BDaughter;fontSize=16;fontColor=#5AA9E6;fillColor=#FFE45E;" edge="1" parent="77e6c97f196da883-1" source="zGQl6dQi8vcCYBd8IJZe-82" target="zGQl6dQi8vcCYBd8IJZe-86">
          <mxGeometry relative="1" as="geometry">
            <Array as="points">
              <mxPoint x="530" y="230" />
              <mxPoint x="530" y="90" />
            </Array>
          </mxGeometry>
        </mxCell>
      </root>
    </mxGraphModel>
  </diagram>
</mxfile>
